<svg width="400" height="400" viewBox="0 0 400 400" xmlns="http://www.w3.org/2000/svg">
  <defs>
    <linearGradient id="bg" x1="0%" y1="0%" x2="100%" y2="100%">
      <stop offset="0%" style="stop-color:#10B981;stop-opacity:0.1" />
      <stop offset="100%" style="stop-color:#3B82F6;stop-opacity:0.1" />
    </linearGradient>
    <linearGradient id="person" x1="0%" y1="0%" x2="100%" y2="100%">
      <stop offset="0%" style="stop-color:#10B981" />
      <stop offset="100%" style="stop-color:#059669" />
    </linearGradient>
  </defs>
  
  <!-- Background -->
  <rect width="400" height="400" fill="url(#bg)" rx="20"/>
  
  <!-- Person with laptop -->
  <g transform="translate(100, 80)">
    <!-- Head -->
    <circle cx="100" cy="60" r="25" fill="#FDB4A6"/>
    
    <!-- Hair -->
    <path d="M75 45 Q100 25 125 45 Q125 35 100 30 Q75 35 75 45" fill="#2D3748"/>
    
    <!-- Body -->
    <rect x="85" y="85" width="30" height="50" rx="15" fill="url(#person)"/>
    
    <!-- Arms -->
    <rect x="65" y="95" width="15" height="35" rx="7" fill="url(#person)"/>
    <rect x="120" y="95" width="15" height="35" rx="7" fill="url(#person)"/>
    
    <!-- Laptop -->
    <rect x="70" y="125" width="60" height="35" rx="3" fill="#374151"/>
    <rect x="72" y="127" width="56" height="25" rx="2" fill="#60A5FA"/>
    
    <!-- Laptop screen content -->
    <rect x="75" y="130" width="50" height="3" rx="1" fill="#10B981"/>
    <rect x="75" y="135" width="35" height="2" rx="1" fill="#F59E0B"/>
    <rect x="75" y="139" width="45" height="2" rx="1" fill="#8B5CF6"/>
    <rect x="75" y="143" width="30" height="2" rx="1" fill="#EF4444"/>
    
    <!-- Legs -->
    <rect x="90" y="135" width="8" height="40" rx="4" fill="#2563EB"/>
    <rect x="102" y="135" width="8" height="40" rx="4" fill="#2563EB"/>
    
    <!-- Feet -->
    <ellipse cx="94" cy="180" rx="8" ry="5" fill="#10B981"/>
    <ellipse cx="106" cy="180" rx="8" ry="5" fill="#10B981"/>
  </g>
  
  <!-- Floating elements -->
  <g opacity="0.6">
    <!-- Data icons -->
    <circle cx="50" cy="150" r="15" fill="#10B981" opacity="0.3"/>
    <text x="50" y="155" text-anchor="middle" fill="#10B981" font-size="12" font-weight="bold">📊</text>
    
    <circle cx="350" cy="120" r="12" fill="#3B82F6" opacity="0.3"/>
    <text x="350" y="125" text-anchor="middle" fill="#3B82F6" font-size="10">🌱</text>
    
    <circle cx="320" cy="280" r="18" fill="#8B5CF6" opacity="0.3"/>
    <text x="320" y="285" text-anchor="middle" fill="#8B5CF6" font-size="14">🤖</text>
    
    <circle cx="80" cy="320" r="14" fill="#F59E0B" opacity="0.3"/>
    <text x="80" y="325" text-anchor="middle" fill="#F59E0B" font-size="12">🎮</text>
  </g>
  
  <!-- Decorative elements -->
  <g opacity="0.4">
    <path d="M30 50 Q50 30 70 50" stroke="#10B981" stroke-width="2" fill="none"/>
    <path d="M330 350 Q350 330 370 350" stroke="#3B82F6" stroke-width="2" fill="none"/>
    <circle cx="60" cy="80" r="2" fill="#10B981"/>
    <circle cx="340" cy="60" r="3" fill="#8B5CF6"/>
    <circle cx="360" cy="320" r="2" fill="#F59E0B"/>
  </g>
</svg>